<?xml version="1.0" encoding="utf-8"?>
<!-- Generator: Adobe Illustrator 20.1.0, SVG Export Plug-In . SVG Version: 6.00 Build 0)  -->
<svg version="1.1" id="Layer_1" xmlns="http://www.w3.org/2000/svg" xmlns:xlink="http://www.w3.org/1999/xlink" x="0px" y="0px"
	 viewBox="0 0 40 40" style="enable-background:new 0 0 40 40;" xml:space="preserve">
<style type="text/css">
	.st0{fill:#989898;}
</style>
<title>icon-twitter</title>
<desc>Created with Sketch.</desc>
<path class="st0" d="M20,0.2C9,0.2,0.1,9.1,0.1,20S9,39.8,20,39.8S39.9,30.9,39.9,20S31,0.2,20,0.2z M14.1,24.4h-3.3
	c-0.2,0-0.3-0.1-0.4-0.2c-0.1-0.1-0.1-0.3,0-0.5l3.5-6.1l-2.2-3.8c-0.1-0.2-0.1-0.4,0-0.5c0-0.1,0.2-0.2,0.4-0.2h3.3
	c0.5,0,0.7,0.3,0.9,0.6l2.2,3.9c-0.1,0.2-3.5,6.2-3.5,6.2C14.8,24.1,14.6,24.4,14.1,24.4z M29.4,9.4l-7.2,12.8l4.6,8.4
	c0.1,0.2,0.1,0.4,0,0.5c0,0.1-0.2,0.2-0.4,0.2h-3.3c-0.5,0-0.7-0.3-0.9-0.6l-4.6-8.5c0.3-0.4,7.3-12.9,7.3-12.9
	c0.2-0.3,0.4-0.6,0.9-0.6H29c0.2,0,0.3,0.1,0.4,0.2C29.5,9,29.5,9.2,29.4,9.4z"/>
</svg>
